<mxfile host="65bd71144e">
    <diagram id="iblqQ-O20coyyTJX_k32" name="Page-1">
        <mxGraphModel dx="579" dy="527" grid="1" gridSize="10" guides="1" tooltips="1" connect="1" arrows="1" fold="1" page="1" pageScale="1" pageWidth="850" pageHeight="1100" math="0" shadow="0">
            <root>
                <mxCell id="0"/>
                <mxCell id="1" parent="0"/>
                <mxCell id="2" value="" style="group" parent="1" vertex="1" connectable="0">
                    <mxGeometry x="90" y="413" width="360" height="210" as="geometry"/>
                </mxCell>
                <mxCell id="35" value="" style="rounded=0;whiteSpace=wrap;html=1;strokeWidth=1;" vertex="1" parent="2">
                    <mxGeometry x="20" y="-9" width="250" height="65" as="geometry"/>
                </mxCell>
                <mxCell id="39" value="Klopt de nummer?" style="text;html=1;resizable=0;autosize=1;align=center;verticalAlign=middle;points=[];fillColor=none;strokeColor=none;rounded=0;" vertex="1" parent="2">
                    <mxGeometry x="90" y="7" width="110" height="20" as="geometry"/>
                </mxCell>
                <mxCell id="40" value="JA" style="text;html=1;resizable=0;autosize=1;align=center;verticalAlign=middle;points=[];fillColor=none;strokeColor=none;rounded=0;" vertex="1" parent="2">
                    <mxGeometry x="30" y="27" width="30" height="20" as="geometry"/>
                </mxCell>
                <mxCell id="41" value="NEE" style="text;html=1;resizable=0;autosize=1;align=center;verticalAlign=middle;points=[];fillColor=none;strokeColor=none;rounded=0;" vertex="1" parent="2">
                    <mxGeometry x="210" y="27" width="40" height="20" as="geometry"/>
                </mxCell>
                <mxCell id="42" value="" style="rounded=0;whiteSpace=wrap;html=1;strokeWidth=1;" vertex="1" parent="2">
                    <mxGeometry x="20" y="56" width="250" height="34" as="geometry"/>
                </mxCell>
                <mxCell id="43" value="" style="line;strokeWidth=1;direction=south;html=1;" vertex="1" parent="2">
                    <mxGeometry x="140" y="56" width="10" height="34" as="geometry"/>
                </mxCell>
                <mxCell id="44" value="Snickers valt naar beneden" style="text;html=1;resizable=0;autosize=1;align=center;verticalAlign=middle;points=[];fillColor=none;strokeColor=none;rounded=0;fontSize=9;" vertex="1" parent="2">
                    <mxGeometry x="20" y="63" width="120" height="20" as="geometry"/>
                </mxCell>
                <mxCell id="46" value="Toets de nummer opnieuw in" style="text;html=1;resizable=0;autosize=1;align=center;verticalAlign=middle;points=[];fillColor=none;strokeColor=none;rounded=0;fontSize=9;" vertex="1" parent="2">
                    <mxGeometry x="140" y="63" width="130" height="20" as="geometry"/>
                </mxCell>
                <mxCell id="47" value="valt de snickers naar beneden" style="rounded=0;whiteSpace=wrap;html=1;fontSize=9;strokeWidth=1;" vertex="1" parent="2">
                    <mxGeometry x="20" y="90" width="250" height="30" as="geometry"/>
                </mxCell>
                <mxCell id="48" value="Pak de snickers" style="rounded=0;whiteSpace=wrap;html=1;fontSize=9;strokeWidth=1;" vertex="1" parent="2">
                    <mxGeometry x="20" y="120" width="250" height="30" as="geometry"/>
                </mxCell>
                <mxCell id="14" value="&lt;span style=&quot;color: rgb(36 , 41 , 47) ; font-family: , &amp;#34;blinkmacsystemfont&amp;#34; , &amp;#34;segoe ui&amp;#34; , &amp;#34;helvetica&amp;#34; , &amp;#34;arial&amp;#34; , sans-serif , &amp;#34;apple color emoji&amp;#34; , &amp;#34;segoe ui emoji&amp;#34; ; font-size: 14px ; background-color: rgb(255 , 255 , 255)&quot;&gt;Je staat op het station en je hebt zin in een snickers. Op het station staat een &quot;vending machine&quot;. Beschrijf in een PSD hoe deze machine werkt.&lt;/span&gt;&lt;br&gt;" style="text;whiteSpace=wrap;html=1;" parent="1" vertex="1">
                    <mxGeometry x="30" y="40" width="550" height="60" as="geometry"/>
                </mxCell>
                <mxCell id="15" value="&amp;nbsp; &amp;nbsp; &amp;nbsp; &amp;nbsp; &amp;nbsp;" style="text;whiteSpace=wrap;html=1;" parent="1" vertex="1">
                    <mxGeometry x="30" y="90" width="170" height="40" as="geometry"/>
                </mxCell>
                <mxCell id="17" value="" style="verticalLabelPosition=bottom;verticalAlign=top;html=1;shape=mxgraph.basic.rect;fillColor2=none;strokeWidth=1;size=20;indent=5;fillColor=none;opacity=80;" parent="1" vertex="1">
                    <mxGeometry x="90" y="740" width="330" height="30" as="geometry"/>
                </mxCell>
                <mxCell id="18" value="ik heb de snickers" style="text;html=1;resizable=0;autosize=1;align=center;verticalAlign=middle;points=[];fillColor=none;strokeColor=none;rounded=0;" parent="1" vertex="1">
                    <mxGeometry x="190" y="745" width="110" height="20" as="geometry"/>
                </mxCell>
                <mxCell id="21" value="Kijken waar de snickers ligt" style="rounded=0;whiteSpace=wrap;html=1;" vertex="1" parent="1">
                    <mxGeometry x="110" y="200" width="250" height="30" as="geometry"/>
                </mxCell>
                <mxCell id="22" value="Kijken wat het kost (in dit geval&amp;nbsp;&lt;span style=&quot;color: rgb(77 , 81 , 86) ; font-family: &amp;#34;arial&amp;#34; , sans-serif ; font-size: 14px ; text-align: left ; background-color: rgb(255 , 255 , 255)&quot;&gt;€1)&lt;/span&gt;" style="rounded=0;whiteSpace=wrap;html=1;" vertex="1" parent="1">
                    <mxGeometry x="110" y="230" width="250" height="30" as="geometry"/>
                </mxCell>
                <mxCell id="26" value="" style="group" vertex="1" connectable="0" parent="1">
                    <mxGeometry x="110" y="260" width="250" height="60" as="geometry"/>
                </mxCell>
                <mxCell id="24" value="Heb ik munten?" style="rounded=0;whiteSpace=wrap;html=1;" vertex="1" parent="26">
                    <mxGeometry width="250" height="60" as="geometry"/>
                </mxCell>
                <mxCell id="25" value="" style="endArrow=none;html=1;entryX=1;entryY=0;entryDx=0;entryDy=0;" edge="1" parent="26" target="24">
                    <mxGeometry width="50" height="50" relative="1" as="geometry">
                        <mxPoint x="250" as="sourcePoint"/>
                        <mxPoint x="170" y="10" as="targetPoint"/>
                        <Array as="points">
                            <mxPoint x="120" y="60"/>
                            <mxPoint/>
                        </Array>
                    </mxGeometry>
                </mxCell>
                <mxCell id="27" value="JA" style="text;html=1;resizable=0;autosize=1;align=center;verticalAlign=middle;points=[];fillColor=none;strokeColor=none;rounded=0;" vertex="1" parent="26">
                    <mxGeometry x="10" y="30" width="30" height="20" as="geometry"/>
                </mxCell>
                <mxCell id="28" value="NEE" style="text;html=1;resizable=0;autosize=1;align=center;verticalAlign=middle;points=[];fillColor=none;strokeColor=none;rounded=0;" vertex="1" parent="26">
                    <mxGeometry x="190" y="30" width="40" height="20" as="geometry"/>
                </mxCell>
                <mxCell id="29" value="&lt;span style=&quot;white-space: pre&quot;&gt;&#9;&lt;/span&gt;&lt;span style=&quot;white-space: pre&quot;&gt;&#9;&lt;/span&gt;&lt;span style=&quot;white-space: pre&quot;&gt;&#9;&lt;/span&gt;&lt;span style=&quot;white-space: pre&quot;&gt;&#9;&lt;/span&gt;" style="rounded=0;whiteSpace=wrap;html=1;" vertex="1" parent="1">
                    <mxGeometry x="110" y="320" width="250" height="30" as="geometry"/>
                </mxCell>
                <mxCell id="30" value="" style="line;strokeWidth=1;direction=south;html=1;" vertex="1" parent="1">
                    <mxGeometry x="225" y="320" width="10" height="30" as="geometry"/>
                </mxCell>
                <mxCell id="31" value="&lt;span style=&quot;color: rgb(77 , 81 , 86) ; font-family: &amp;#34;arial&amp;#34; , sans-serif ; font-size: 14px ; text-align: left ; background-color: rgb(255 , 255 , 255)&quot;&gt;€1 tellen&lt;/span&gt;" style="text;html=1;resizable=0;autosize=1;align=center;verticalAlign=middle;points=[];fillColor=none;strokeColor=none;rounded=0;" vertex="1" parent="1">
                    <mxGeometry x="130" y="325" width="70" height="20" as="geometry"/>
                </mxCell>
                <mxCell id="33" value="&lt;span style=&quot;color: rgb(77 , 81 , 86) ; font-family: &amp;#34;arial&amp;#34; , sans-serif ; font-size: 14px ; font-style: normal ; font-weight: 400 ; letter-spacing: normal ; text-align: left ; text-indent: 0px ; text-transform: none ; word-spacing: 0px ; background-color: rgb(255 , 255 , 255) ; display: inline ; float: none&quot;&gt;doe&amp;nbsp;&lt;/span&gt;&lt;span style=&quot;color: rgb(77 , 81 , 86) ; font-family: &amp;#34;arial&amp;#34; , sans-serif ; font-size: 14px ; text-align: left ; background-color: rgb(255 , 255 , 255)&quot;&gt;€1 in de vending machine&lt;/span&gt;" style="rounded=0;whiteSpace=wrap;html=1;strokeWidth=1;" vertex="1" parent="1">
                    <mxGeometry x="110" y="350" width="250" height="30" as="geometry"/>
                </mxCell>
                <mxCell id="34" value="intoets de nummer van de snickers" style="rounded=0;whiteSpace=wrap;html=1;strokeWidth=1;" vertex="1" parent="1">
                    <mxGeometry x="110" y="380" width="250" height="30" as="geometry"/>
                </mxCell>
                <mxCell id="37" value="" style="endArrow=none;html=1;entryX=0.996;entryY=0.107;entryDx=0;entryDy=0;exitX=0;exitY=1;exitDx=0;exitDy=0;entryPerimeter=0;" edge="1" parent="1" source="34" target="35">
                    <mxGeometry width="50" height="50" relative="1" as="geometry">
                        <mxPoint x="200" y="500" as="sourcePoint"/>
                        <mxPoint x="250" y="450" as="targetPoint"/>
                        <Array as="points">
                            <mxPoint x="110" y="410"/>
                            <mxPoint x="235" y="470"/>
                        </Array>
                    </mxGeometry>
                </mxCell>
            </root>
        </mxGraphModel>
    </diagram>
</mxfile>